<?xml version="1.0" encoding="UTF-8"?>
<svg version="1.1" xmlns="http://www.w3.org/2000/svg" width="59" height="69">
<path d="M0 0 C19.47 0 38.94 0 59 0 C59 22.77 59 45.54 59 69 C39.53 69 20.06 69 0 69 C0 46.23 0 23.46 0 0 Z " fill="#FDFDFE" transform="translate(0,0)"/>
<path d="M0 0 C2.30140758 1.67981157 4.11136245 3.22179363 6.08984375 5.22265625 C6.63862686 5.76095566 7.18740997 6.29925507 7.75282288 6.85386658 C8.9056578 7.99388434 10.05083948 9.14168705 11.1887207 10.29663086 C12.93253065 12.05748209 14.71039745 13.7777716 16.49414062 15.49804688 C17.6116371 16.61231929 18.72694971 17.72878708 19.83984375 18.84765625 C20.63961891 19.61372948 20.63961891 19.61372948 21.45555115 20.39527893 C24.12718267 23.17107079 24.9867028 24.63865115 25.12988281 28.52954102 C23.7890258 32.64801171 22.13671807 34.62366337 19.08203125 37.6796875 C18.58716721 38.17792023 18.09230316 38.67615295 17.58244324 39.18948364 C16.53805563 40.23357369 15.48623082 41.27027185 14.42749023 42.29980469 C12.81502369 43.87253849 11.23403592 45.4725933 9.65429688 47.078125 C8.63195483 48.09290838 7.60792021 49.10598999 6.58203125 50.1171875 C5.65624268 51.03097168 4.7304541 51.94475586 3.77661133 52.88623047 C0.68792952 55.23757199 -1.13870966 55.91553116 -5 56 C-7.9375 53.875 -7.9375 53.875 -10 51 C-9.73752898 46.9667621 -8.57211823 45.11239816 -5.62109375 42.44140625 C-4.61079102 41.49104492 -4.61079102 41.49104492 -3.58007812 40.52148438 C-2.15150459 39.21532279 -0.71920028 37.91322999 0.71679688 36.61523438 C4.69133524 32.87343079 4.69133524 32.87343079 6.9296875 27.99609375 C5.47078859 23.29451618 2.16013895 20.72906851 -1.4375 17.5 C-8.69308179 10.95211853 -8.69308179 10.95211853 -10.0703125 6.6796875 C-10 4 -10 4 -8.4375 1.625 C-5.26211005 -0.49192664 -3.77407367 -0.50033662 0 0 Z " fill="#406DF9" transform="translate(32,11)"/>
<path d="M0 0 C0 9.57 0 19.14 0 29 C-9.57 29 -19.14 29 -29 29 C-27.89209055 25.67627165 -27.08866014 24.99652773 -24.45703125 22.828125 C-19.96666894 19.0178778 -15.82425083 14.93753248 -11.6875 10.75 C-10.98560547 10.04359375 -10.28371094 9.3371875 -9.56054688 8.609375 C-8.26664179 7.30683565 -6.97377685 6.00326148 -5.68237305 4.69824219 C-5.12718994 4.13782227 -4.57200684 3.57740234 -4 3 C-3.4531958 2.4318457 -2.9063916 1.86369141 -2.34301758 1.27832031 C-1 0 -1 0 0 0 Z " fill="#FEFEFE" transform="translate(59,40)"/>
<path d="M0 0 C2.5 1.5625 2.5 1.5625 4 4 C3.93866496 7.4960972 3.65265114 9.93514814 1.8125 12.9375 C-0.95588471 14.56034621 -2.85545467 14.44922076 -6 14 C-8.375 12.4375 -8.375 12.4375 -10 10 C-10.42519574 6.53769185 -10.63902633 4.1652833 -8.9375 1.0625 C-5.8347167 -0.63902633 -3.46230815 -0.42519574 0 0 Z " fill="#4570F8" transform="translate(25,32)"/>
</svg>
