<?xml version="1.0" encoding="UTF-8"?>
<svg version="1.1" xmlns="http://www.w3.org/2000/svg" width="308" height="176">
<path d="M0 0 C101.64 0 203.28 0 308 0 C308 58.08 308 116.16 308 176 C206.36 176 104.72 176 0 176 C0 117.92 0 59.84 0 0 Z " fill="#FEFEFE" transform="translate(0,0)"/>
<path d="M0 0 C2.77353291 1.7648933 4.96087328 4.0025611 7.24609375 6.3515625 C7.90207047 7.00321381 8.55804718 7.65486511 9.23390198 8.32626343 C10.6129652 9.704946 11.98334495 11.09236243 13.34545898 12.48779297 C15.43250284 14.61989495 17.5520358 16.71510646 19.67773438 18.80859375 C21.01510402 20.15418274 22.35046199 21.50177474 23.68359375 22.8515625 C24.31784775 23.47680817 24.95210175 24.10205383 25.60557556 24.74624634 C28.33476741 27.57997642 29.84500565 29.23240043 30.63647461 33.15209961 C29.84916461 36.6749117 28.64525957 38.13736799 26.1328125 40.71484375 C25.30942383 41.5744873 24.48603516 42.43413086 23.63769531 43.31982422 C22.76725586 44.20428223 21.89681641 45.08874023 21 46 C20.17338867 46.8780127 19.34677734 47.75602539 18.49511719 48.66064453 C15.98443525 51.32463187 13.43502748 53.94597267 10.875 56.5625 C10.02035156 57.46291016 9.16570312 58.36332031 8.28515625 59.29101562 C1.24054526 66.46007059 1.24054526 66.46007059 -2.9375 67.18359375 C-6 67 -6 67 -8.875 65.5 C-11.80177045 62.05674064 -12.25274712 60.55396142 -12 56 C-9.28503987 52.38345046 -5.97565298 49.45830825 -2.625 46.4375 C-0.83525073 44.8024362 0.94389994 43.15567633 2.7109375 41.49609375 C3.50806152 40.77607178 4.30518555 40.0560498 5.12646484 39.31420898 C7.39700527 36.5096152 7.78737732 34.56948375 8 31 C7.07640228 28.9882577 7.07640228 28.9882577 5.4375 27.4375 C4.87804687 26.84710938 4.31859375 26.25671875 3.7421875 25.6484375 C2.23799003 24.2251834 0.65611758 22.88486352 -0.9375 21.5625 C-4.73889223 18.38174324 -7.80260295 14.76993371 -11 11 C-11.33 10.67 -11.66 10.34 -12 10 C-12.375 7.75 -12.375 7.75 -12 5 C-8.42580303 0.12609504 -5.93475423 -0.84029877 0 0 Z " fill="#416DF9" transform="translate(64,74)"/>
<path d="M0 0 C2.64 0 5.28 0 8 0 C9.65 5.28 11.3 10.56 13 16 C13.598125 14.47375 14.19625 12.9475 14.8125 11.375 C16.37098766 7.47046152 18.04288349 3.71852137 20 0 C21.98 0 23.96 0 26 0 C27.98 5.28 29.96 10.56 32 16 C32.99 13.36 33.98 10.72 35 8 C36 5.33333333 37 2.66666667 38 0 C40.64 0 43.28 0 46 0 C45.18272975 4.9439805 43.59762931 9.61867609 42.0625 14.375 C40.28978533 19.89586321 38.55825007 25.41438865 37 31 C34.36 31 31.72 31 29 31 C27.02 25.72 25.04 20.44 23 15 C19.78738791 22.92173856 19.78738791 22.92173856 17 31 C14.36 31 11.72 31 9 31 C0 6.15533981 0 6.15533981 0 0 Z " fill="#363636" transform="translate(164,71)"/>
<path d="M0 0 C2.31 0 4.62 0 7 0 C10.3 6.27 13.6 12.54 17 19 C18.51332136 16.73001796 19.74263257 14.63178917 20.9453125 12.20703125 C21.29980469 11.49482422 21.65429688 10.78261719 22.01953125 10.04882812 C22.38433594 9.31083984 22.74914062 8.57285156 23.125 7.8125 C23.49753906 7.06291016 23.87007812 6.31332031 24.25390625 5.54101562 C25.17108054 3.6949084 26.08578112 1.84757257 27 0 C29.31 0 31.62 0 34 0 C34.76776475 4.0752634 35.11902034 7.91005447 35.09765625 12.0546875 C35.09443359 13.16328125 35.09121094 14.271875 35.08789062 15.4140625 C35.07532227 17.12722656 35.07532227 17.12722656 35.0625 18.875 C35.05798828 20.0403125 35.05347656 21.205625 35.04882812 22.40625 C35.03708781 25.27088645 35.0206657 28.13541633 35 31 C32.69 31 30.38 31 28 31 C28 26.38 28 21.76 28 17 C27.34 17 26.68 17 26 17 C25.83177734 18.08861328 25.83177734 18.08861328 25.66015625 19.19921875 C24.97038613 22.12563993 23.94489186 24.22287809 22.4375 26.8125 C21.98246094 27.60269531 21.52742188 28.39289063 21.05859375 29.20703125 C20.70925781 29.79871094 20.35992187 30.39039062 20 31 C18.02 31 16.04 31 14 31 C12.02 26.71 10.04 22.42 8 18 C7.34 22.29 6.68 26.58 6 31 C3.69 31 1.38 31 -1 31 C-1.16494885 20.6265501 -0.65043638 10.3489074 0 0 Z " fill="#353535" transform="translate(214,71)"/>
<path d="M0 0 C1.31484375 0.01546875 2.6296875 0.0309375 3.984375 0.046875 C7.25 0.25 7.25 0.25 9.25 1.25 C8.92 3.56 8.59 5.87 8.25 8.25 C6.80367187 8.18039063 6.80367187 8.18039063 5.328125 8.109375 C4.06484375 8.07328125 2.8015625 8.0371875 1.5 8 C0.24703125 7.95359375 -1.0059375 7.9071875 -2.296875 7.859375 C-5.78477109 7.96052902 -5.78477109 7.96052902 -8.16796875 10.05078125 C-10.50216333 13.29559989 -10.36562503 15.35104146 -9.75 19.25 C-8.0239971 22.39358251 -8.0239971 22.39358251 -4.75 24.25 C-1.37316725 24.65212665 1.86756708 24.54555239 5.25 24.25 C5.25 22.6 5.25 20.95 5.25 19.25 C2.28 19.25 -0.69 19.25 -3.75 19.25 C-3.75 17.27 -3.75 15.29 -3.75 13.25 C1.53 13.25 6.81 13.25 12.25 13.25 C12.25 18.53 12.25 23.81 12.25 29.25 C-3.04811321 33.83943396 -3.04811321 33.83943396 -8.87890625 31.3359375 C-13.38910033 28.7610569 -16.60239609 26.0821088 -18.75 21.25 C-19.60893829 15.84277897 -19.70257679 10.94106365 -16.625 6.25 C-12.36613738 0.68285932 -6.64392943 -0.13130295 0 0 Z " fill="#333333" transform="translate(126.75,70.75)"/>
<path d="M0 0 C0.94875 0.33 1.8975 0.66 2.875 1 C2.875 2.65 2.875 4.3 2.875 6 C-2.08573422 7.32286246 -7.03611512 7.08893197 -12.125 7 C-12.455 7.99 -12.785 8.98 -13.125 10 C-12.46113281 10.10957031 -11.79726563 10.21914062 -11.11328125 10.33203125 C-5.06379687 11.41828903 -0.58269497 12.54230503 3.875 17 C4.55638801 24.04100946 4.55638801 24.04100946 2.1875 27.375 C-2.48693965 30.65974137 -6.01632468 31.24943143 -11.6875 30.75 C-12.80253906 30.66234375 -13.91757812 30.5746875 -15.06640625 30.484375 C-17.86702493 30.04085429 -19.71301323 29.43893588 -22.125 28 C-21.795 26.02 -21.465 24.04 -21.125 22 C-20.17625 22.165 -19.2275 22.33 -18.25 22.5 C-13.5486123 23.18541792 -8.86496714 23.08583441 -4.125 23 C-4.455 22.01 -4.785 21.02 -5.125 20 C-8.08192424 18.82349308 -11.08233497 18.02174863 -14.14453125 17.16015625 C-17.38619797 15.89832792 -18.97929683 14.71517889 -21.125 12 C-21.6875 8.5625 -21.6875 8.5625 -21.125 5 C-15.3377793 -2.00558295 -8.51425401 -2.4550303 0 0 Z " fill="#333333" transform="translate(276.125,72)"/>
<path d="M0 0 C2.5 1.5625 2.5 1.5625 4 4 C4.44902962 8.1909431 4.44565826 11.46738251 2 15 C-1.45577579 16.7278879 -5.22102693 16.47756253 -9 16 C-11.4395583 14.22577578 -11.8366175 13.02218795 -12.3046875 10.09375 C-12.52691687 6.59036936 -12.32809877 4.54683128 -10.5 1.5 C-6.9683809 -0.61897146 -4.01676563 -0.79841448 0 0 Z " fill="#416DF9" transform="translate(56,99)"/>
<path d="M0 0 C4.95 0 9.9 0 15 0 C15 2.31 15 4.62 15 7 C10.05 7 5.1 7 0 7 C0 4.69 0 2.38 0 0 Z " fill="#333333" transform="translate(146,87)"/>
</svg>
